<mxfile host="app.diagrams.net" modified="2024-05-07T15:13:24.448Z" agent="Mozilla/5.0 (Windows NT 10.0; Win64; x64) AppleWebKit/537.36 (KHTML, like Gecko) Chrome/124.0.0.0 Safari/537.36" etag="vIkZIaARxNsyIPpIkS5Y" version="24.3.1" type="device">
  <diagram name="‫עמוד-1‬" id="Irhl2ybRTZ6hDGPzilzi">
    <mxGraphModel dx="1556" dy="776" grid="1" gridSize="10" guides="1" tooltips="1" connect="1" arrows="1" fold="1" page="1" pageScale="1" pageWidth="827" pageHeight="1169" math="0" shadow="0">
      <root>
        <mxCell id="0" />
        <mxCell id="1" parent="0" />
        <mxCell id="AJ9RHfCNpIEL10GADZWj-3" value="Service" style="shape=umlFrame;whiteSpace=wrap;html=1;pointerEvents=0;width=60;height=20;" parent="1" vertex="1">
          <mxGeometry x="10" y="210" width="780" height="310" as="geometry" />
        </mxCell>
        <mxCell id="Ji8Wb4CYxmGb_L5L8j7Q-17" style="edgeStyle=none;curved=1;rounded=0;orthogonalLoop=1;jettySize=auto;html=1;fontSize=12;startSize=8;endSize=8;" parent="1" source="AJ9RHfCNpIEL10GADZWj-4" target="Ji8Wb4CYxmGb_L5L8j7Q-7" edge="1">
          <mxGeometry relative="1" as="geometry" />
        </mxCell>
        <mxCell id="AJ9RHfCNpIEL10GADZWj-4" value="ClientService" style="html=1;whiteSpace=wrap;" parent="1" vertex="1">
          <mxGeometry x="124" y="280" width="130" height="70" as="geometry" />
        </mxCell>
        <mxCell id="Ji8Wb4CYxmGb_L5L8j7Q-16" style="edgeStyle=none;curved=1;rounded=0;orthogonalLoop=1;jettySize=auto;html=1;fontSize=12;startSize=8;endSize=8;" parent="1" source="AJ9RHfCNpIEL10GADZWj-5" target="Ji8Wb4CYxmGb_L5L8j7Q-8" edge="1">
          <mxGeometry relative="1" as="geometry" />
        </mxCell>
        <mxCell id="AJ9RHfCNpIEL10GADZWj-5" value="SellerService" style="html=1;whiteSpace=wrap;" parent="1" vertex="1">
          <mxGeometry x="293" y="280" width="130" height="70" as="geometry" />
        </mxCell>
        <mxCell id="Ji8Wb4CYxmGb_L5L8j7Q-14" style="edgeStyle=none;curved=1;rounded=0;orthogonalLoop=1;jettySize=auto;html=1;fontSize=12;startSize=8;endSize=8;" parent="1" source="AJ9RHfCNpIEL10GADZWj-6" target="Ji8Wb4CYxmGb_L5L8j7Q-9" edge="1">
          <mxGeometry relative="1" as="geometry" />
        </mxCell>
        <mxCell id="AJ9RHfCNpIEL10GADZWj-6" value="MarketService" style="html=1;whiteSpace=wrap;" parent="1" vertex="1">
          <mxGeometry x="465" y="280" width="130" height="70" as="geometry" />
        </mxCell>
        <mxCell id="Ji8Wb4CYxmGb_L5L8j7Q-19" style="edgeStyle=none;curved=1;rounded=0;orthogonalLoop=1;jettySize=auto;html=1;entryX=0.5;entryY=0;entryDx=0;entryDy=0;fontSize=12;startSize=8;endSize=8;" parent="1" source="AJ9RHfCNpIEL10GADZWj-7" target="Ji8Wb4CYxmGb_L5L8j7Q-10" edge="1">
          <mxGeometry relative="1" as="geometry" />
        </mxCell>
        <mxCell id="AJ9RHfCNpIEL10GADZWj-7" value="PaymentService" style="html=1;whiteSpace=wrap;" parent="1" vertex="1">
          <mxGeometry x="379" y="400" width="130" height="70" as="geometry" />
        </mxCell>
        <mxCell id="Ji8Wb4CYxmGb_L5L8j7Q-20" style="edgeStyle=none;curved=1;rounded=0;orthogonalLoop=1;jettySize=auto;html=1;entryX=0.5;entryY=0;entryDx=0;entryDy=0;fontSize=12;startSize=8;endSize=8;" parent="1" source="AJ9RHfCNpIEL10GADZWj-8" target="Ji8Wb4CYxmGb_L5L8j7Q-11" edge="1">
          <mxGeometry relative="1" as="geometry" />
        </mxCell>
        <mxCell id="AJ9RHfCNpIEL10GADZWj-8" value="SupplyService" style="html=1;whiteSpace=wrap;" parent="1" vertex="1">
          <mxGeometry x="550" y="400" width="130" height="70" as="geometry" />
        </mxCell>
        <mxCell id="Ji8Wb4CYxmGb_L5L8j7Q-18" style="edgeStyle=none;curved=1;rounded=0;orthogonalLoop=1;jettySize=auto;html=1;fontSize=12;startSize=8;endSize=8;" parent="1" source="Ji8Wb4CYxmGb_L5L8j7Q-1" target="Ji8Wb4CYxmGb_L5L8j7Q-12" edge="1">
          <mxGeometry relative="1" as="geometry" />
        </mxCell>
        <mxCell id="Ji8Wb4CYxmGb_L5L8j7Q-1" value="AlertService" style="html=1;whiteSpace=wrap;" parent="1" vertex="1">
          <mxGeometry x="210" y="400" width="130" height="70" as="geometry" />
        </mxCell>
        <mxCell id="Ji8Wb4CYxmGb_L5L8j7Q-15" style="edgeStyle=none;curved=1;rounded=0;orthogonalLoop=1;jettySize=auto;html=1;fontSize=12;startSize=8;endSize=8;" parent="1" source="Ji8Wb4CYxmGb_L5L8j7Q-2" target="Ji8Wb4CYxmGb_L5L8j7Q-13" edge="1">
          <mxGeometry relative="1" as="geometry" />
        </mxCell>
        <mxCell id="Ji8Wb4CYxmGb_L5L8j7Q-2" value="ManagerService" style="html=1;whiteSpace=wrap;" parent="1" vertex="1">
          <mxGeometry x="633" y="280" width="130" height="70" as="geometry" />
        </mxCell>
        <mxCell id="Ji8Wb4CYxmGb_L5L8j7Q-6" value="Domain" style="shape=umlFrame;whiteSpace=wrap;html=1;pointerEvents=0;width=60;height=20;" parent="1" vertex="1">
          <mxGeometry x="10" y="570" width="780" height="310" as="geometry" />
        </mxCell>
        <mxCell id="Ji8Wb4CYxmGb_L5L8j7Q-24" style="edgeStyle=none;curved=1;rounded=0;orthogonalLoop=1;jettySize=auto;html=1;exitX=1;exitY=0.5;exitDx=0;exitDy=0;fontSize=12;startSize=8;endSize=8;" parent="1" source="Ji8Wb4CYxmGb_L5L8j7Q-7" target="Ji8Wb4CYxmGb_L5L8j7Q-9" edge="1">
          <mxGeometry relative="1" as="geometry">
            <Array as="points">
              <mxPoint x="260" y="780" />
            </Array>
          </mxGeometry>
        </mxCell>
        <mxCell id="Ji8Wb4CYxmGb_L5L8j7Q-30" style="edgeStyle=none;curved=1;rounded=0;orthogonalLoop=1;jettySize=auto;html=1;fontSize=12;startSize=8;endSize=8;" parent="1" source="Ji8Wb4CYxmGb_L5L8j7Q-7" target="Ji8Wb4CYxmGb_L5L8j7Q-12" edge="1">
          <mxGeometry relative="1" as="geometry" />
        </mxCell>
        <mxCell id="Ji8Wb4CYxmGb_L5L8j7Q-7" value="Clients" style="html=1;whiteSpace=wrap;" parent="1" vertex="1">
          <mxGeometry x="124" y="640" width="130" height="70" as="geometry" />
        </mxCell>
        <mxCell id="Ji8Wb4CYxmGb_L5L8j7Q-22" style="edgeStyle=none;curved=1;rounded=0;orthogonalLoop=1;jettySize=auto;html=1;fontSize=12;startSize=8;endSize=8;" parent="1" source="Ji8Wb4CYxmGb_L5L8j7Q-8" target="Ji8Wb4CYxmGb_L5L8j7Q-9" edge="1">
          <mxGeometry relative="1" as="geometry" />
        </mxCell>
        <mxCell id="Ji8Wb4CYxmGb_L5L8j7Q-31" style="edgeStyle=none;curved=1;rounded=0;orthogonalLoop=1;jettySize=auto;html=1;fontSize=12;startSize=8;endSize=8;" parent="1" source="Ji8Wb4CYxmGb_L5L8j7Q-8" target="Ji8Wb4CYxmGb_L5L8j7Q-12" edge="1">
          <mxGeometry relative="1" as="geometry" />
        </mxCell>
        <mxCell id="RZhKE3HX4mXzrv4Y8PL6-17" style="edgeStyle=none;curved=1;rounded=0;orthogonalLoop=1;jettySize=auto;html=1;entryX=1;entryY=0.25;entryDx=0;entryDy=0;fontSize=12;startSize=8;endSize=8;" edge="1" parent="1" source="Ji8Wb4CYxmGb_L5L8j7Q-8" target="RZhKE3HX4mXzrv4Y8PL6-3">
          <mxGeometry relative="1" as="geometry" />
        </mxCell>
        <mxCell id="Ji8Wb4CYxmGb_L5L8j7Q-8" value="Sellers" style="html=1;whiteSpace=wrap;" parent="1" vertex="1">
          <mxGeometry x="293" y="640" width="130" height="70" as="geometry" />
        </mxCell>
        <mxCell id="Ji8Wb4CYxmGb_L5L8j7Q-26" style="edgeStyle=none;curved=1;rounded=0;orthogonalLoop=1;jettySize=auto;html=1;fontSize=12;startSize=8;endSize=8;exitX=0.5;exitY=1;exitDx=0;exitDy=0;" parent="1" source="Ji8Wb4CYxmGb_L5L8j7Q-9" target="Ji8Wb4CYxmGb_L5L8j7Q-10" edge="1">
          <mxGeometry relative="1" as="geometry" />
        </mxCell>
        <mxCell id="Ji8Wb4CYxmGb_L5L8j7Q-29" style="edgeStyle=none;curved=1;rounded=0;orthogonalLoop=1;jettySize=auto;html=1;entryX=0.75;entryY=0;entryDx=0;entryDy=0;fontSize=12;startSize=8;endSize=8;exitX=0.25;exitY=1;exitDx=0;exitDy=0;" parent="1" source="Ji8Wb4CYxmGb_L5L8j7Q-9" target="Ji8Wb4CYxmGb_L5L8j7Q-12" edge="1">
          <mxGeometry relative="1" as="geometry" />
        </mxCell>
        <mxCell id="RZhKE3HX4mXzrv4Y8PL6-5" style="edgeStyle=none;curved=1;rounded=0;orthogonalLoop=1;jettySize=auto;html=1;exitX=0.5;exitY=1;exitDx=0;exitDy=0;fontSize=12;startSize=8;endSize=8;" edge="1" parent="1" source="Ji8Wb4CYxmGb_L5L8j7Q-9" target="Ji8Wb4CYxmGb_L5L8j7Q-11">
          <mxGeometry relative="1" as="geometry">
            <Array as="points">
              <mxPoint x="560" y="740" />
            </Array>
          </mxGeometry>
        </mxCell>
        <mxCell id="RZhKE3HX4mXzrv4Y8PL6-16" style="edgeStyle=none;curved=1;rounded=0;orthogonalLoop=1;jettySize=auto;html=1;fontSize=12;startSize=8;endSize=8;" edge="1" parent="1" source="Ji8Wb4CYxmGb_L5L8j7Q-9" target="RZhKE3HX4mXzrv4Y8PL6-3">
          <mxGeometry relative="1" as="geometry">
            <Array as="points">
              <mxPoint x="580" y="970" />
            </Array>
          </mxGeometry>
        </mxCell>
        <mxCell id="Ji8Wb4CYxmGb_L5L8j7Q-9" value="Markets" style="html=1;whiteSpace=wrap;" parent="1" vertex="1">
          <mxGeometry x="465" y="640" width="130" height="70" as="geometry" />
        </mxCell>
        <mxCell id="Ji8Wb4CYxmGb_L5L8j7Q-10" value="Payments" style="html=1;whiteSpace=wrap;" parent="1" vertex="1">
          <mxGeometry x="379" y="760" width="130" height="70" as="geometry" />
        </mxCell>
        <mxCell id="Ji8Wb4CYxmGb_L5L8j7Q-11" value="Supplies" style="html=1;whiteSpace=wrap;" parent="1" vertex="1">
          <mxGeometry x="550" y="760" width="130" height="70" as="geometry" />
        </mxCell>
        <mxCell id="Ji8Wb4CYxmGb_L5L8j7Q-12" value="Alerts" style="html=1;whiteSpace=wrap;" parent="1" vertex="1">
          <mxGeometry x="210" y="760" width="130" height="70" as="geometry" />
        </mxCell>
        <mxCell id="Ji8Wb4CYxmGb_L5L8j7Q-21" style="edgeStyle=none;curved=1;rounded=0;orthogonalLoop=1;jettySize=auto;html=1;exitX=0;exitY=0.5;exitDx=0;exitDy=0;entryX=1;entryY=0.5;entryDx=0;entryDy=0;fontSize=12;startSize=8;endSize=8;" parent="1" source="Ji8Wb4CYxmGb_L5L8j7Q-13" target="Ji8Wb4CYxmGb_L5L8j7Q-9" edge="1">
          <mxGeometry relative="1" as="geometry" />
        </mxCell>
        <mxCell id="RZhKE3HX4mXzrv4Y8PL6-15" style="edgeStyle=none;curved=1;rounded=0;orthogonalLoop=1;jettySize=auto;html=1;fontSize=12;startSize=8;endSize=8;" edge="1" parent="1" source="Ji8Wb4CYxmGb_L5L8j7Q-13" target="RZhKE3HX4mXzrv4Y8PL6-3">
          <mxGeometry relative="1" as="geometry">
            <Array as="points">
              <mxPoint x="820" y="820" />
              <mxPoint x="530" y="870" />
              <mxPoint x="340" y="860" />
              <mxPoint x="170" y="860" />
            </Array>
          </mxGeometry>
        </mxCell>
        <mxCell id="Ji8Wb4CYxmGb_L5L8j7Q-13" value="Managers" style="html=1;whiteSpace=wrap;" parent="1" vertex="1">
          <mxGeometry x="633" y="640" width="130" height="70" as="geometry" />
        </mxCell>
        <mxCell id="RZhKE3HX4mXzrv4Y8PL6-4" style="edgeStyle=none;curved=1;rounded=0;orthogonalLoop=1;jettySize=auto;html=1;fontSize=12;startSize=8;endSize=8;" edge="1" parent="1" source="RZhKE3HX4mXzrv4Y8PL6-1" target="RZhKE3HX4mXzrv4Y8PL6-3">
          <mxGeometry relative="1" as="geometry" />
        </mxCell>
        <mxCell id="RZhKE3HX4mXzrv4Y8PL6-1" value="&lt;div&gt;Permission&lt;span style=&quot;background-color: initial;&quot;&gt;Service&lt;/span&gt;&lt;/div&gt;" style="html=1;whiteSpace=wrap;" vertex="1" parent="1">
          <mxGeometry x="38" y="400" width="130" height="70" as="geometry" />
        </mxCell>
        <mxCell id="RZhKE3HX4mXzrv4Y8PL6-3" value="&lt;div&gt;Permissions&lt;/div&gt;" style="html=1;whiteSpace=wrap;" vertex="1" parent="1">
          <mxGeometry x="38" y="760" width="130" height="70" as="geometry" />
        </mxCell>
      </root>
    </mxGraphModel>
  </diagram>
</mxfile>
